<svg width="848" height="249" viewBox="0 0 848 249" fill="none" xmlns="http://www.w3.org/2000/svg">
<path d="M641.9 73H637.5L634 62.7H619.9L616.4 73H612.15L624.35 38.1H629.7L641.9 73ZM632.95 59L628.55 46.35L627.05 42H626.8L625.3 46.35L620.9 59H632.95ZM656.681 73V38.1H671.031C673.898 38.1 676.165 38.9167 677.831 40.55C679.498 42.1833 680.331 44.3667 680.331 47.1C680.331 48.8333 680.015 50.2167 679.381 51.25C678.781 52.2833 678.031 53.05 677.131 53.55C676.265 54.05 675.448 54.3667 674.681 54.5V54.8C675.315 54.8333 676.015 55.0167 676.781 55.35C677.581 55.65 678.331 56.1167 679.031 56.75C679.765 57.3833 680.365 58.2 680.831 59.2C681.298 60.2 681.531 61.4333 681.531 62.9C681.531 64.8 681.131 66.5167 680.331 68.05C679.565 69.5833 678.498 70.8 677.131 71.7C675.798 72.5667 674.265 73 672.531 73H656.681ZM660.881 56.8V69.3H671.231C672.431 69.3 673.465 69.1 674.331 68.7C675.198 68.2667 675.865 67.65 676.331 66.85C676.798 66.05 677.031 65.0667 677.031 63.9V62.2C677.031 61.0333 676.798 60.05 676.331 59.25C675.865 58.45 675.198 57.85 674.331 57.45C673.465 57.0167 672.431 56.8 671.231 56.8H660.881ZM660.881 41.8V53.2H670.531C671.631 53.2 672.565 53.0167 673.331 52.65C674.131 52.25 674.748 51.7 675.181 51C675.615 50.2667 675.831 49.3833 675.831 48.35V46.65C675.831 45.6167 675.615 44.75 675.181 44.05C674.748 43.3167 674.131 42.7667 673.331 42.4C672.565 42 671.631 41.8 670.531 41.8H660.881ZM698.347 73V38.1H710.047C712.947 38.1 715.464 38.75 717.597 40.05C719.764 41.3167 721.431 43.25 722.597 45.85C723.764 48.4167 724.347 51.65 724.347 55.55C724.347 59.45 723.764 62.7 722.597 65.3C721.431 67.8667 719.764 69.8 717.597 71.1C715.464 72.3667 712.947 73 710.047 73H698.347ZM702.547 69.3H710.047C711.981 69.3 713.681 68.8667 715.147 68C716.614 67.1333 717.764 65.9 718.597 64.3C719.431 62.6667 719.847 60.7 719.847 58.4V52.7C719.847 50.4 719.431 48.4333 718.597 46.8C717.764 45.1667 716.614 43.9333 715.147 43.1C713.681 42.2333 711.981 41.8 710.047 41.8H702.547V69.3ZM762.192 73H740.892V38.1H762.192V41.8H745.092V53.5H761.192V57.2H745.092V69.3H762.192V73ZM800.343 73H779.043V38.1H800.343V41.8H783.243V53.5H799.343V57.2H783.243V69.3H800.343V73ZM838.393 73L825.643 51.7L821.443 43.95H821.293V51.7V73H817.193V38.1H822.043L834.793 59.4L838.993 67.15H839.143V59.4V38.1H843.243V73H838.393ZM634.7 138H615.65V103.1H619.85V134.3H634.7V138ZM676.877 138H672.477L668.977 127.7H654.877L651.377 138H647.127L659.327 103.1H664.677L676.877 138ZM667.927 124L663.527 111.35L662.027 107H661.777L660.277 111.35L655.877 124H667.927ZM691.658 138V103.1H706.008C708.874 103.1 711.141 103.917 712.808 105.55C714.474 107.183 715.308 109.367 715.308 112.1C715.308 113.833 714.991 115.217 714.358 116.25C713.758 117.283 713.008 118.05 712.108 118.55C711.241 119.05 710.424 119.367 709.658 119.5V119.8C710.291 119.833 710.991 120.017 711.758 120.35C712.558 120.65 713.308 121.117 714.008 121.75C714.741 122.383 715.341 123.2 715.808 124.2C716.274 125.2 716.508 126.433 716.508 127.9C716.508 129.8 716.108 131.517 715.308 133.05C714.541 134.583 713.474 135.8 712.108 136.7C710.774 137.567 709.241 138 707.508 138H691.658ZM695.858 121.8V134.3H706.208C707.408 134.3 708.441 134.1 709.308 133.7C710.174 133.267 710.841 132.65 711.308 131.85C711.774 131.05 712.008 130.067 712.008 128.9V127.2C712.008 126.033 711.774 125.05 711.308 124.25C710.841 123.45 710.174 122.85 709.308 122.45C708.441 122.017 707.408 121.8 706.208 121.8H695.858ZM695.858 106.8V118.2H705.508C706.608 118.2 707.541 118.017 708.308 117.65C709.108 117.25 709.724 116.7 710.158 116C710.591 115.267 710.808 114.383 710.808 113.35V111.65C710.808 110.617 710.591 109.75 710.158 109.05C709.724 108.317 709.108 107.767 708.308 107.4C707.541 107 706.608 106.8 705.508 106.8H695.858ZM743.124 138.6C740.324 138.6 737.907 138.067 735.874 137C733.874 135.9 732.174 134.4 730.774 132.5L733.874 129.9C735.107 131.533 736.474 132.783 737.974 133.65C739.474 134.483 741.24 134.9 743.274 134.9C745.774 134.9 747.674 134.3 748.974 133.1C750.307 131.9 750.974 130.3 750.974 128.3C750.974 127.2 750.757 126.267 750.324 125.5C749.89 124.733 749.19 124.1 748.224 123.6C747.29 123.067 746.057 122.633 744.524 122.3L741.674 121.65C739.574 121.15 737.79 120.5 736.324 119.7C734.857 118.9 733.74 117.867 732.974 116.6C732.207 115.333 731.824 113.817 731.824 112.05C731.824 109.983 732.307 108.25 733.274 106.85C734.24 105.417 735.59 104.333 737.324 103.6C739.09 102.867 741.107 102.5 743.374 102.5C746.007 102.5 748.257 102.983 750.124 103.95C752.024 104.917 753.624 106.333 754.924 108.2L751.774 110.5C750.84 109.167 749.674 108.117 748.274 107.35C746.907 106.583 745.207 106.2 743.174 106.2C740.94 106.2 739.174 106.683 737.874 107.65C736.607 108.617 735.974 110.033 735.974 111.9C735.974 113 736.207 113.917 736.674 114.65C737.174 115.383 737.907 116 738.874 116.5C739.84 116.967 741.057 117.367 742.524 117.7L745.374 118.35C747.64 118.85 749.49 119.533 750.924 120.4C752.357 121.267 753.407 122.333 754.074 123.6C754.774 124.867 755.124 126.367 755.124 128.1C755.124 130.233 754.64 132.083 753.674 133.65C752.707 135.217 751.324 136.433 749.524 137.3C747.757 138.167 745.624 138.6 743.124 138.6Z" fill="#FAFAFA"/>
<path d="M92 139.25C92 132.417 91.3333 126.333 90 121C88.8333 115.667 87.4167 110.417 85.75 105.25L99.25 74C104.583 85.1667 107.25 96.5 107.25 108C107.25 110.333 107.167 112.75 107 115.25C106.833 117.75 106.5 120.167 106 122.5C103 139.333 96.8333 154.583 87.5 168.25C78.3333 181.25 66.75 190.417 52.75 195.75C49.0833 196.917 45.5833 197.917 42.25 198.75C38.9167 199.417 35.75 199.75 32.75 199.75C29.9167 199.75 27.1667 199.417 24.5 198.75C21.8333 198.083 19.3333 197.167 17 196C11.8333 193.5 7.66667 189.25 4.5 183.25C1.5 177.25 0 169.833 0 161C0 153.167 1.75 144 5.25 133.5C8.91667 122.833 14.4167 110.833 21.75 97.5C23.75 93.6667 25.9167 89.6667 28.25 85.5C30.75 81.3333 33.0833 77.4167 35.25 73.75L39 75.75C42.3333 77.9167 45.6667 80.1667 49 82.5C52.3333 84.6667 55.6667 86.9167 59 89.25C57.6667 91.75 56.3333 94.25 55 96.75C53.6667 99.0833 52.3333 101.417 51 103.75C49.6667 106.083 48.6667 107.833 48 109C47.3333 110.167 46.6667 111.417 46 112.75C45.3333 113.917 44.3333 115.667 43 118L24.5 105.5C22.3333 110.5 20 115.583 17.5 120.75C15.1667 125.917 12.8333 131.583 10.5 137.75C9.33333 140.583 8.75 143.417 8.75 146.25C8.75 153.417 13.0833 158.833 21.75 162.5C27.0833 163.5 32.25 164 37.25 164C46.0833 164 54.3333 162.5 62 159.5C74 154.667 84 148.667 92 141.5V139.25Z" fill="#CC1B1B"/>
<path d="M152.236 185C144.236 186.5 136.236 188 128.236 189.5C120.236 191 112.236 192.5 104.236 194L119.236 164.25C127.236 162.75 135.236 161.25 143.236 159.75C151.236 158.25 159.236 156.75 167.236 155.25L152.236 185Z" fill="#CC1B1B"/>
<path d="M170.465 80.5C170.465 84.1667 169.882 88.3333 168.715 93C167.548 97.5 165.882 102.417 163.715 107.75C159.382 118.917 153.298 126.667 145.465 131C135.632 136.667 118.882 140.25 95.2148 141.75L99.7148 108.25C112.548 107.583 123.132 106.75 131.465 105.75C139.965 104.583 146.298 103.25 150.465 101.75C159.132 98.75 165.548 91.5 169.715 80L170.465 80.5Z" fill="#CC1B1B"/>
<path d="M267.084 158.75C268.417 158.75 269.417 159.167 270.084 160C270.751 160.833 271.084 161.833 271.084 163C271.084 166.333 269.917 168.417 267.584 169.25C264.917 171.25 262.417 173.75 260.084 176.75C257.751 179.75 255.667 182.75 253.834 185.75C250.667 190.417 247.334 193.917 243.834 196.25C240.501 198.583 236.001 199.75 230.334 199.75C225.001 199.75 219.167 198.75 212.834 196.75C211.501 196.417 209.167 195.583 205.834 194.25C202.667 192.917 198.417 191.167 193.084 189C182.751 184.5 176.501 181.333 174.334 179.5C173.834 179 173.584 178.583 173.584 178.25C173.584 177.417 174.417 176.75 176.084 176.25C187.751 173.417 200.084 171.583 213.084 170.75C226.251 169.75 239.001 168.25 251.334 166.25C256.001 165.417 260.084 163.417 263.584 160.25C264.584 159.25 265.751 158.75 267.084 158.75Z" fill="#CC1B1B"/>
<path d="M320.531 222.5C317.198 226.833 313.781 231.083 310.281 235.25C306.948 239.583 303.531 243.917 300.031 248.25L282.281 231.75C285.615 227.417 289.031 223.083 292.531 218.75C296.031 214.417 299.448 210.167 302.781 206L320.531 222.5Z" fill="#CC1B1B"/>
<path d="M346.807 124.5C346.64 132.667 344.807 140.417 341.307 147.75C337.973 155.083 333.39 161.667 327.557 167.5C321.89 173.167 315.64 177.833 308.807 181.5C301.973 185 294.973 187.083 287.807 187.75C280.64 188.25 273.89 187 267.557 184C263.39 182 260.64 178.917 259.307 174.75C257.973 170.583 257.64 166.083 258.307 161.25C259.14 156.25 260.64 151.333 262.807 146.5C264.973 141.667 267.39 137.5 270.057 134C270.557 133.167 270.807 133.167 270.807 134C270.14 137.833 270.473 141.667 271.807 145.5C273.307 149.333 275.723 151.667 279.057 152.5C284.89 154 291.223 154.417 298.057 153.75C305.057 152.917 311.807 151.167 318.307 148.5C324.973 145.833 330.723 142.417 335.557 138.25C340.557 134.083 344.057 129.333 346.057 124C346.223 123.667 346.39 123.583 346.557 123.75C346.723 123.917 346.807 124.167 346.807 124.5Z" fill="#CC1B1B"/>
<path d="M369.568 57.25L385.318 28L394.818 170.25L379.318 199.75L369.568 57.25Z" fill="#CC1B1B"/>
<path d="M447.895 120.5C448.895 126.667 450.978 132.083 454.145 136.75C457.311 141.25 460.811 145.167 464.645 148.5C472.311 148.333 478.895 146.833 484.395 144C487.228 142.667 490.061 141.333 492.895 140C495.728 138.667 498.645 137.417 501.645 136.25C501.811 136.25 501.895 136.25 501.895 136.25C502.061 136.25 502.145 136.25 502.145 136.25C502.478 136.25 502.645 136.5 502.645 137C502.645 137.667 502.395 138.667 501.895 140C500.895 143.167 499.561 146.667 497.895 150.5C496.228 154.333 494.645 157.75 493.145 160.75C492.311 162.417 491.645 163.75 491.145 164.75C490.811 165.583 490.561 166.167 490.395 166.5C472.561 176 453.978 183 434.645 187.5C424.978 189.667 415.561 191.833 406.395 194C397.228 196 388.228 197.917 379.395 199.75L385.145 167.25C395.145 165.917 404.145 164.75 412.145 163.75C420.145 162.583 427.978 160.917 435.645 158.75C432.645 154.25 431.145 148.333 431.145 141C431.145 132.167 432.561 123.833 435.395 116C438.228 108.167 441.728 101.75 445.895 96.75C450.061 91.5833 454.895 89 460.395 89H460.645C465.311 89.1667 469.478 89.6667 473.145 90.5C476.811 91.3333 480.645 92.25 484.645 93.25L474.145 125.75C469.978 124.417 465.645 123.333 461.145 122.5C456.811 121.5 452.395 120.833 447.895 120.5Z" fill="#CC1B1B"/>
<path d="M557 0L557 173" stroke="#FAFAFA" stroke-width="4"/>
</svg>
