<svg width="503" height="221" viewBox="0 0 503 221" fill="none" xmlns="http://www.w3.org/2000/svg">
<path d="M92 111.25C92 104.417 91.3333 98.3333 90 93C88.8333 87.6667 87.4167 82.4167 85.75 77.25L99.25 46C104.583 57.1667 107.25 68.5 107.25 80C107.25 82.3333 107.167 84.75 107 87.25C106.833 89.75 106.5 92.1667 106 94.5C103 111.333 96.8333 126.583 87.5 140.25C78.3333 153.25 66.75 162.417 52.75 167.75C49.0833 168.917 45.5833 169.917 42.25 170.75C38.9167 171.417 35.75 171.75 32.75 171.75C29.9167 171.75 27.1667 171.417 24.5 170.75C21.8333 170.083 19.3333 169.167 17 168C11.8333 165.5 7.66667 161.25 4.5 155.25C1.5 149.25 0 141.833 0 133C0 125.167 1.75 116 5.25 105.5C8.91667 94.8333 14.4167 82.8333 21.75 69.5C23.75 65.6667 25.9167 61.6667 28.25 57.5C30.75 53.3333 33.0833 49.4167 35.25 45.75L39 47.75C42.3333 49.9167 45.6667 52.1667 49 54.5C52.3333 56.6667 55.6667 58.9167 59 61.25C57.6667 63.75 56.3333 66.25 55 68.75C53.6667 71.0833 52.3333 73.4167 51 75.75C49.6667 78.0833 48.6667 79.8333 48 81C47.3333 82.1667 46.6667 83.4167 46 84.75C45.3333 85.9167 44.3333 87.6667 43 90L24.5 77.5C22.3333 82.5 20 87.5833 17.5 92.75C15.1667 97.9167 12.8333 103.583 10.5 109.75C9.33333 112.583 8.75 115.417 8.75 118.25C8.75 125.417 13.0833 130.833 21.75 134.5C27.0833 135.5 32.25 136 37.25 136C46.0833 136 54.3333 134.5 62 131.5C74 126.667 84 120.667 92 113.5V111.25Z" fill="#0A0A0A"/>
<path d="M152.236 157C144.236 158.5 136.236 160 128.236 161.5C120.236 163 112.236 164.5 104.236 166L119.236 136.25C127.236 134.75 135.236 133.25 143.236 131.75C151.236 130.25 159.236 128.75 167.236 127.25L152.236 157Z" fill="#0A0A0A"/>
<path d="M170.465 52.5C170.465 56.1667 169.882 60.3333 168.715 65C167.548 69.5 165.882 74.4167 163.715 79.75C159.382 90.9167 153.298 98.6667 145.465 103C135.632 108.667 118.882 112.25 95.2148 113.75L99.7148 80.25C112.548 79.5833 123.132 78.75 131.465 77.75C139.965 76.5833 146.298 75.25 150.465 73.75C159.132 70.75 165.548 63.5 169.715 52L170.465 52.5Z" fill="#0A0A0A"/>
<path d="M267.084 130.75C268.417 130.75 269.417 131.167 270.084 132C270.751 132.833 271.084 133.833 271.084 135C271.084 138.333 269.917 140.417 267.584 141.25C264.917 143.25 262.417 145.75 260.084 148.75C257.751 151.75 255.667 154.75 253.834 157.75C250.667 162.417 247.334 165.917 243.834 168.25C240.501 170.583 236.001 171.75 230.334 171.75C225.001 171.75 219.167 170.75 212.834 168.75C211.501 168.417 209.167 167.583 205.834 166.25C202.667 164.917 198.417 163.167 193.084 161C182.751 156.5 176.501 153.333 174.334 151.5C173.834 151 173.584 150.583 173.584 150.25C173.584 149.417 174.417 148.75 176.084 148.25C187.751 145.417 200.084 143.583 213.084 142.75C226.251 141.75 239.001 140.25 251.334 138.25C256.001 137.417 260.084 135.417 263.584 132.25C264.584 131.25 265.751 130.75 267.084 130.75Z" fill="#0A0A0A"/>
<path d="M320.531 194.5C317.198 198.833 313.781 203.083 310.281 207.25C306.948 211.583 303.531 215.917 300.031 220.25L282.281 203.75C285.615 199.417 289.031 195.083 292.531 190.75C296.031 186.417 299.448 182.167 302.781 178L320.531 194.5Z" fill="#0A0A0A"/>
<path d="M346.807 96.5C346.64 104.667 344.807 112.417 341.307 119.75C337.973 127.083 333.39 133.667 327.557 139.5C321.89 145.167 315.64 149.833 308.807 153.5C301.973 157 294.973 159.083 287.807 159.75C280.64 160.25 273.89 159 267.557 156C263.39 154 260.64 150.917 259.307 146.75C257.973 142.583 257.64 138.083 258.307 133.25C259.14 128.25 260.64 123.333 262.807 118.5C264.973 113.667 267.39 109.5 270.057 106C270.557 105.167 270.807 105.167 270.807 106C270.14 109.833 270.473 113.667 271.807 117.5C273.307 121.333 275.723 123.667 279.057 124.5C284.89 126 291.223 126.417 298.057 125.75C305.057 124.917 311.807 123.167 318.307 120.5C324.973 117.833 330.723 114.417 335.557 110.25C340.557 106.083 344.057 101.333 346.057 96C346.223 95.6667 346.39 95.5833 346.557 95.75C346.723 95.9167 346.807 96.1667 346.807 96.5Z" fill="#0A0A0A"/>
<path d="M369.568 29.25L385.318 0L394.818 142.25L379.318 171.75L369.568 29.25Z" fill="#0A0A0A"/>
<path d="M447.895 92.5C448.895 98.6667 450.978 104.083 454.145 108.75C457.311 113.25 460.811 117.167 464.645 120.5C472.311 120.333 478.895 118.833 484.395 116C487.228 114.667 490.061 113.333 492.895 112C495.728 110.667 498.645 109.417 501.645 108.25C501.811 108.25 501.895 108.25 501.895 108.25C502.061 108.25 502.145 108.25 502.145 108.25C502.478 108.25 502.645 108.5 502.645 109C502.645 109.667 502.395 110.667 501.895 112C500.895 115.167 499.561 118.667 497.895 122.5C496.228 126.333 494.645 129.75 493.145 132.75C492.311 134.417 491.645 135.75 491.145 136.75C490.811 137.583 490.561 138.167 490.395 138.5C472.561 148 453.978 155 434.645 159.5C424.978 161.667 415.561 163.833 406.395 166C397.228 168 388.228 169.917 379.395 171.75L385.145 139.25C395.145 137.917 404.145 136.75 412.145 135.75C420.145 134.583 427.978 132.917 435.645 130.75C432.645 126.25 431.145 120.333 431.145 113C431.145 104.167 432.561 95.8333 435.395 88C438.228 80.1667 441.728 73.75 445.895 68.75C450.061 63.5833 454.895 61 460.395 61H460.645C465.311 61.1667 469.478 61.6667 473.145 62.5C476.811 63.3333 480.645 64.25 484.645 65.25L474.145 97.75C469.978 96.4167 465.645 95.3333 461.145 94.5C456.811 93.5 452.395 92.8333 447.895 92.5Z" fill="#0A0A0A"/>
</svg>
