<svg width="503" height="272" viewBox="0 0 503 272" fill="none" xmlns="http://www.w3.org/2000/svg">
<path d="M75.1813 271H70.7812L67.2812 260.7H53.1813L49.6813 271H45.4313L57.6313 236.1H62.9813L75.1813 271ZM66.2312 257L61.8312 244.35L60.3312 240H60.0812L58.5812 244.35L54.1813 257H66.2312Z" fill="#FAFAFA"/>
<path d="M89.9625 271V236.1H104.312C107.179 236.1 109.446 236.917 111.113 238.55C112.779 240.183 113.613 242.367 113.613 245.1C113.613 246.833 113.296 248.217 112.663 249.25C112.063 250.283 111.312 251.05 110.412 251.55C109.546 252.05 108.729 252.367 107.963 252.5V252.8C108.596 252.833 109.296 253.017 110.062 253.35C110.863 253.65 111.613 254.117 112.312 254.75C113.046 255.383 113.646 256.2 114.113 257.2C114.579 258.2 114.812 259.433 114.812 260.9C114.812 262.8 114.413 264.517 113.613 266.05C112.846 267.583 111.779 268.8 110.412 269.7C109.079 270.567 107.546 271 105.812 271H89.9625ZM94.1625 254.8V267.3H104.512C105.712 267.3 106.746 267.1 107.613 266.7C108.479 266.267 109.146 265.65 109.613 264.85C110.079 264.05 110.312 263.067 110.312 261.9V260.2C110.312 259.033 110.079 258.05 109.613 257.25C109.146 256.45 108.479 255.85 107.613 255.45C106.746 255.017 105.712 254.8 104.512 254.8H94.1625ZM94.1625 239.8V251.2H103.812C104.912 251.2 105.846 251.017 106.613 250.65C107.413 250.25 108.029 249.7 108.463 249C108.896 248.267 109.113 247.383 109.113 246.35V244.65C109.113 243.617 108.896 242.75 108.463 242.05C108.029 241.317 107.413 240.767 106.613 240.4C105.846 240 104.912 239.8 103.812 239.8H94.1625Z" fill="#FAFAFA"/>
<path d="M131.629 271V236.1H143.329C146.229 236.1 148.745 236.75 150.879 238.05C153.045 239.317 154.712 241.25 155.879 243.85C157.045 246.417 157.629 249.65 157.629 253.55C157.629 257.45 157.045 260.7 155.879 263.3C154.712 265.867 153.045 267.8 150.879 269.1C148.745 270.367 146.229 271 143.329 271H131.629ZM135.829 267.3H143.329C145.262 267.3 146.962 266.867 148.429 266C149.895 265.133 151.045 263.9 151.879 262.3C152.712 260.667 153.129 258.7 153.129 256.4V250.7C153.129 248.4 152.712 246.433 151.879 244.8C151.045 243.167 149.895 241.933 148.429 241.1C146.962 240.233 145.262 239.8 143.329 239.8H135.829V267.3Z" fill="#FAFAFA"/>
<path d="M195.473 271H174.173V236.1H195.473V239.8H178.373V251.5H194.473V255.2H178.373V267.3H195.473V271Z" fill="#FAFAFA"/>
<path d="M233.624 271H212.324V236.1H233.624V239.8H216.524V251.5H232.624V255.2H216.524V267.3H233.624V271Z" fill="#FAFAFA"/>
<path d="M271.674 271L258.924 249.7L254.724 241.95H254.574V271H250.474V236.1H255.324L268.074 257.4L272.274 265.15H272.424V236.1H276.524V271H271.674Z" fill="#FAFAFA"/>
<path d="M334.692 271H315.642V236.1H319.842V267.3H334.692V271Z" fill="#FAFAFA"/>
<path d="M376.869 271H372.469L368.969 260.7H354.869L351.369 271H347.119L359.319 236.1H364.669L376.869 271ZM367.919 257L363.519 244.35L362.019 240H361.769L360.269 244.35L355.869 257H367.919Z" fill="#FAFAFA"/>
<path d="M391.65 271V236.1H406C408.867 236.1 411.133 236.917 412.8 238.55C414.467 240.183 415.3 242.367 415.3 245.1C415.3 246.833 414.983 248.217 414.35 249.25C413.75 250.283 413 251.05 412.1 251.55C411.233 252.05 410.417 252.367 409.65 252.5V252.8C410.283 252.833 410.983 253.017 411.75 253.35C412.55 253.65 413.3 254.117 414 254.75C414.733 255.383 415.333 256.2 415.8 257.2C416.267 258.2 416.5 259.433 416.5 260.9C416.5 262.8 416.1 264.517 415.3 266.05C414.533 267.583 413.467 268.8 412.1 269.7C410.767 270.567 409.233 271 407.5 271H391.65ZM395.85 254.8V267.3H406.2C407.4 267.3 408.433 267.1 409.3 266.7C410.167 266.267 410.833 265.65 411.3 264.85C411.767 264.05 412 263.067 412 261.9V260.2C412 259.033 411.767 258.05 411.3 257.25C410.833 256.45 410.167 255.85 409.3 255.45C408.433 255.017 407.4 254.8 406.2 254.8H395.85ZM395.85 239.8V251.2H405.5C406.6 251.2 407.533 251.017 408.3 250.65C409.1 250.25 409.717 249.7 410.15 249C410.583 248.267 410.8 247.383 410.8 246.35V244.65C410.8 243.617 410.583 242.75 410.15 242.05C409.717 241.317 409.1 240.767 408.3 240.4C407.533 240 406.6 239.8 405.5 239.8H395.85Z" fill="#FAFAFA"/>
<path d="M443.116 271.6C440.316 271.6 437.899 271.067 435.866 270C433.866 268.9 432.166 267.4 430.766 265.5L433.866 262.9C435.099 264.533 436.466 265.783 437.966 266.65C439.466 267.483 441.233 267.9 443.266 267.9C445.766 267.9 447.666 267.3 448.966 266.1C450.299 264.9 450.966 263.3 450.966 261.3C450.966 260.2 450.749 259.267 450.316 258.5C449.883 257.733 449.183 257.1 448.216 256.6C447.283 256.067 446.049 255.633 444.516 255.3L441.666 254.65C439.566 254.15 437.783 253.5 436.316 252.7C434.849 251.9 433.733 250.867 432.966 249.6C432.199 248.333 431.816 246.817 431.816 245.05C431.816 242.983 432.299 241.25 433.266 239.85C434.233 238.417 435.583 237.333 437.316 236.6C439.083 235.867 441.099 235.5 443.366 235.5C445.999 235.5 448.249 235.983 450.116 236.95C452.016 237.917 453.616 239.333 454.916 241.2L451.766 243.5C450.833 242.167 449.666 241.117 448.266 240.35C446.899 239.583 445.199 239.2 443.166 239.2C440.933 239.2 439.166 239.683 437.866 240.65C436.599 241.617 435.966 243.033 435.966 244.9C435.966 246 436.199 246.917 436.666 247.65C437.166 248.383 437.899 249 438.866 249.5C439.833 249.967 441.049 250.367 442.516 250.7L445.366 251.35C447.633 251.85 449.483 252.533 450.916 253.4C452.349 254.267 453.399 255.333 454.066 256.6C454.766 257.867 455.116 259.367 455.116 261.1C455.116 263.233 454.633 265.083 453.666 266.65C452.699 268.217 451.316 269.433 449.516 270.3C447.749 271.167 445.616 271.6 443.116 271.6Z" fill="#FAFAFA"/>
<path d="M92 111.25C92 104.417 91.3333 98.3333 90 93C88.8333 87.6667 87.4167 82.4167 85.75 77.25L99.25 46C104.583 57.1667 107.25 68.5 107.25 80C107.25 82.3333 107.167 84.75 107 87.25C106.833 89.75 106.5 92.1667 106 94.5C103 111.333 96.8333 126.583 87.5 140.25C78.3333 153.25 66.75 162.417 52.75 167.75C49.0833 168.917 45.5833 169.917 42.25 170.75C38.9167 171.417 35.75 171.75 32.75 171.75C29.9167 171.75 27.1667 171.417 24.5 170.75C21.8333 170.083 19.3333 169.167 17 168C11.8333 165.5 7.66667 161.25 4.5 155.25C1.5 149.25 0 141.833 0 133C0 125.167 1.75 116 5.25 105.5C8.91667 94.8333 14.4167 82.8333 21.75 69.5C23.75 65.6667 25.9167 61.6667 28.25 57.5C30.75 53.3333 33.0833 49.4167 35.25 45.75L39 47.75C42.3333 49.9167 45.6667 52.1667 49 54.5C52.3333 56.6667 55.6667 58.9167 59 61.25C57.6667 63.75 56.3333 66.25 55 68.75C53.6667 71.0833 52.3333 73.4167 51 75.75C49.6667 78.0833 48.6667 79.8333 48 81C47.3333 82.1667 46.6667 83.4167 46 84.75C45.3333 85.9167 44.3333 87.6667 43 90L24.5 77.5C22.3333 82.5 20 87.5833 17.5 92.75C15.1667 97.9167 12.8333 103.583 10.5 109.75C9.33333 112.583 8.75 115.417 8.75 118.25C8.75 125.417 13.0833 130.833 21.75 134.5C27.0833 135.5 32.25 136 37.25 136C46.0833 136 54.3333 134.5 62 131.5C74 126.667 84 120.667 92 113.5V111.25Z" fill="#CC1B1B"/>
<path d="M152.236 157C144.236 158.5 136.236 160 128.236 161.5C120.236 163 112.236 164.5 104.236 166L119.236 136.25C127.236 134.75 135.236 133.25 143.236 131.75C151.236 130.25 159.236 128.75 167.236 127.25L152.236 157Z" fill="#CC1B1B"/>
<path d="M170.465 52.5C170.465 56.1667 169.882 60.3333 168.715 65C167.548 69.5 165.882 74.4167 163.715 79.75C159.382 90.9167 153.298 98.6667 145.465 103C135.632 108.667 118.882 112.25 95.2148 113.75L99.7148 80.25C112.548 79.5833 123.132 78.75 131.465 77.75C139.965 76.5833 146.298 75.25 150.465 73.75C159.132 70.75 165.548 63.5 169.715 52L170.465 52.5Z" fill="#CC1B1B"/>
<path d="M267.084 130.75C268.417 130.75 269.417 131.167 270.084 132C270.751 132.833 271.084 133.833 271.084 135C271.084 138.333 269.917 140.417 267.584 141.25C264.917 143.25 262.417 145.75 260.084 148.75C257.751 151.75 255.667 154.75 253.834 157.75C250.667 162.417 247.334 165.917 243.834 168.25C240.501 170.583 236.001 171.75 230.334 171.75C225.001 171.75 219.167 170.75 212.834 168.75C211.501 168.417 209.167 167.583 205.834 166.25C202.667 164.917 198.417 163.167 193.084 161C182.751 156.5 176.501 153.333 174.334 151.5C173.834 151 173.584 150.583 173.584 150.25C173.584 149.417 174.417 148.75 176.084 148.25C187.751 145.417 200.084 143.583 213.084 142.75C226.251 141.75 239.001 140.25 251.334 138.25C256.001 137.417 260.084 135.417 263.584 132.25C264.584 131.25 265.751 130.75 267.084 130.75Z" fill="#CC1B1B"/>
<path d="M320.531 194.5C317.198 198.833 313.781 203.083 310.281 207.25C306.948 211.583 303.531 215.917 300.031 220.25L282.281 203.75C285.615 199.417 289.031 195.083 292.531 190.75C296.031 186.417 299.448 182.167 302.781 178L320.531 194.5Z" fill="#CC1B1B"/>
<path d="M346.807 96.5C346.64 104.667 344.807 112.417 341.307 119.75C337.973 127.083 333.39 133.667 327.557 139.5C321.89 145.167 315.64 149.833 308.807 153.5C301.973 157 294.973 159.083 287.807 159.75C280.64 160.25 273.89 159 267.557 156C263.39 154 260.64 150.917 259.307 146.75C257.973 142.583 257.64 138.083 258.307 133.25C259.14 128.25 260.64 123.333 262.807 118.5C264.973 113.667 267.39 109.5 270.057 106C270.557 105.167 270.807 105.167 270.807 106C270.14 109.833 270.473 113.667 271.807 117.5C273.307 121.333 275.723 123.667 279.057 124.5C284.89 126 291.223 126.417 298.057 125.75C305.057 124.917 311.807 123.167 318.307 120.5C324.973 117.833 330.723 114.417 335.557 110.25C340.557 106.083 344.057 101.333 346.057 96C346.223 95.6667 346.39 95.5833 346.557 95.75C346.723 95.9167 346.807 96.1667 346.807 96.5Z" fill="#CC1B1B"/>
<path d="M369.568 29.25L385.318 0L394.818 142.25L379.318 171.75L369.568 29.25Z" fill="#CC1B1B"/>
<path d="M447.895 92.5C448.895 98.6667 450.978 104.083 454.145 108.75C457.311 113.25 460.811 117.167 464.645 120.5C472.311 120.333 478.895 118.833 484.395 116C487.228 114.667 490.061 113.333 492.895 112C495.728 110.667 498.645 109.417 501.645 108.25C501.811 108.25 501.895 108.25 501.895 108.25C502.061 108.25 502.145 108.25 502.145 108.25C502.478 108.25 502.645 108.5 502.645 109C502.645 109.667 502.395 110.667 501.895 112C500.895 115.167 499.561 118.667 497.895 122.5C496.228 126.333 494.645 129.75 493.145 132.75C492.311 134.417 491.645 135.75 491.145 136.75C490.811 137.583 490.561 138.167 490.395 138.5C472.561 148 453.978 155 434.645 159.5C424.978 161.667 415.561 163.833 406.395 166C397.228 168 388.228 169.917 379.395 171.75L385.145 139.25C395.145 137.917 404.145 136.75 412.145 135.75C420.145 134.583 427.978 132.917 435.645 130.75C432.645 126.25 431.145 120.333 431.145 113C431.145 104.167 432.561 95.8333 435.395 88C438.228 80.1667 441.728 73.75 445.895 68.75C450.061 63.5833 454.895 61 460.395 61H460.645C465.311 61.1667 469.478 61.6667 473.145 62.5C476.811 63.3333 480.645 64.25 484.645 65.25L474.145 97.75C469.978 96.4167 465.645 95.3333 461.145 94.5C456.811 93.5 452.395 92.8333 447.895 92.5Z" fill="#CC1B1B"/>
</svg>
